<?xml version="1.0" encoding="iso-8859-1"?>
<svg version="1.1" id="Layer_1" xmlns="http://www.w3.org/2000/svg" xmlns:xlink="http://www.w3.org/1999/xlink" x="0px" y="0px"
	 viewBox="0 0 512 512" style="enable-background:new 0 0 512 512;" xml:space="preserve">
<circle style="fill:#C0AB91;" cx="176.713" cy="289.98" r="168.876"/>
<path style="fill:#957856;" d="M345.586,289.981c0,93.273-75.603,168.874-168.874,168.874v-337.75
	C269.984,121.106,345.586,196.708,345.586,289.981z"/>
<circle style="fill:#FFE477;" cx="335.287" cy="222.02" r="168.876"/>
<path style="fill:#FFD442;" d="M504.163,222.019c0,93.272-75.603,168.874-168.874,168.874V53.145
	C428.561,53.145,504.163,128.747,504.163,222.019z"/>
<g>
	<rect x="60.75" y="323.333" style="fill:#FFFFFF;" width="15.673" height="15.673"/>
	<rect x="110.184" y="210.066" style="fill:#FFFFFF;" width="15.673" height="15.673"/>
	<rect x="119.724" y="385.118" style="fill:#FFFFFF;" width="15.673" height="15.673"/>
</g>
<path d="M176.711,466.692C79.272,466.692,0,387.42,0,289.981c0-44.194,16.398-86.495,46.173-119.109
	c29.579-32.399,69.818-52.562,113.307-56.771l1.51,15.6c-39.619,3.836-76.285,22.21-103.243,51.739
	c-27.13,29.718-42.073,68.266-42.073,108.541c0,88.798,72.241,161.039,161.038,161.039c38.102,0,75.067-13.549,104.082-38.152
	l10.137,11.955C259.086,451.822,218.522,466.692,176.711,466.692z"/>
<g>
	<rect x="219.335" y="255.373" style="fill:#FFFFFF;" width="15.673" height="15.673"/>
	<rect x="332.601" y="210.066" style="fill:#FFFFFF;" width="15.673" height="15.673"/>
	<rect x="427.332" y="210.066" style="fill:#FFFFFF;" width="15.673" height="15.673"/>
	<rect x="268.758" y="142.106" style="fill:#FFFFFF;" width="15.673" height="15.673"/>
	<rect x="278.173" y="317.158" style="fill:#FFFFFF;" width="15.673" height="15.673"/>
</g>
<path d="M335.289,398.731c-97.439,0-176.711-79.272-176.711-176.711S237.85,45.308,335.289,45.308S512,124.58,512,222.02
	C512,319.458,432.728,398.731,335.289,398.731z M335.289,60.981c-88.796,0-161.038,72.241-161.038,161.039
	c0,88.796,72.241,161.038,161.038,161.038c88.797,0,161.038-72.242,161.038-161.038C496.327,133.222,424.085,60.981,335.289,60.981z
	"/>
<g>
</g>
<g>
</g>
<g>
</g>
<g>
</g>
<g>
</g>
<g>
</g>
<g>
</g>
<g>
</g>
<g>
</g>
<g>
</g>
<g>
</g>
<g>
</g>
<g>
</g>
<g>
</g>
<g>
</g>
</svg>
