<svg width="168" height="54" viewBox="0 0 168 54" fill="none" xmlns="http://www.w3.org/2000/svg">
<g clip-path="url(#clip0_65_465)">
<path d="M18.6377 48.395C28.4745 48.395 36.4488 40.4206 36.4488 30.5838C36.4488 20.747 28.4745 12.7727 18.6377 12.7727C8.80086 12.7727 0.826538 20.747 0.826538 30.5838C0.826538 40.4206 8.80086 48.395 18.6377 48.395Z" fill="#C0AB91"/>
<path d="M36.4485 30.5839C36.4485 40.4213 28.4748 48.3949 18.6376 48.3949V12.7728C28.4749 12.7729 36.4485 20.7465 36.4485 30.5839Z" fill="#957856"/>
<path d="M35.3623 41.2273C45.1991 41.2273 53.1734 33.253 53.1734 23.4162C53.1734 13.5793 45.1991 5.60503 35.3623 5.60503C25.5255 5.60503 17.5511 13.5793 17.5511 23.4162C17.5511 33.253 25.5255 41.2273 35.3623 41.2273Z" fill="#FFE477"/>
<path d="M53.1735 23.4161C53.1735 33.2533 45.1997 41.227 35.3625 41.227V5.60514C45.1998 5.60514 53.1735 13.5788 53.1735 23.4161Z" fill="#FFD442"/>
<path d="M8.06024 34.1015H6.40723V35.7545H8.06024V34.1015Z" fill="white"/>
<path d="M13.274 22.1554H11.621V23.8084H13.274V22.1554Z" fill="white"/>
<path d="M14.2802 40.6179H12.6272V42.2709H14.2802V40.6179Z" fill="white"/>
<path d="M18.6375 49.2214C8.36072 49.2214 0 40.8607 0 30.5839C0 25.9228 1.72948 21.4614 4.86981 18.0217C7.98947 14.6046 12.2334 12.478 16.8202 12.0341L16.9794 13.6794C12.8008 14.084 8.93373 16.0219 6.0905 19.1362C3.22914 22.2706 1.65312 26.3362 1.65312 30.5839C1.65312 39.9493 9.27229 47.5685 18.6376 47.5685C22.6562 47.5685 26.5548 46.1395 29.615 43.5447L30.6841 44.8055C27.3255 47.6531 23.0472 49.2214 18.6375 49.2214Z" fill="black"/>
<path d="M24.7859 26.9339H23.1329V28.5869H24.7859V26.9339Z" fill="white"/>
<path d="M36.732 22.1554H35.079V23.8084H36.732V22.1554Z" fill="white"/>
<path d="M46.7231 22.1554H45.0701V23.8084H46.7231V22.1554Z" fill="white"/>
<path d="M29.9985 14.9877H28.3455V16.6408H29.9985V14.9877Z" fill="white"/>
<path d="M30.9915 33.4503H29.3385V35.1033H30.9915V33.4503Z" fill="white"/>
<path d="M35.3625 42.0537C25.0857 42.0537 16.725 33.6929 16.725 23.4162C16.725 13.1394 25.0857 4.77858 35.3625 4.77858C45.6392 4.77858 54 13.1393 54 23.4162C54 33.6928 45.6392 42.0537 35.3625 42.0537ZM35.3625 6.43159C25.9973 6.43159 18.378 14.0508 18.378 23.4162C18.378 32.7814 25.9972 40.4007 35.3625 40.4007C44.7278 40.4007 52.3469 32.7814 52.3469 23.4162C52.3469 14.0508 44.7277 6.43159 35.3625 6.43159Z" fill="black"/>
</g>
<path d="M117.82 42.22C116.207 42.22 114.973 41.6933 114.12 40.64C113.28 39.5867 112.86 38.18 112.86 36.42C112.86 35.26 113.08 34.24 113.52 33.36C113.96 32.48 114.573 31.8 115.36 31.32C116.16 30.84 117.067 30.6 118.08 30.6C119.32 30.6 120.28 30.9467 120.96 31.64C121.653 32.32 122.02 33.3 122.06 34.58C122.06 35.3933 122.013 36.0133 121.92 36.44H115.04C115.067 37.76 115.373 38.8267 115.96 39.64C116.547 40.44 117.38 40.84 118.46 40.84C118.993 40.84 119.547 40.7467 120.12 40.56C120.707 40.36 121.16 40.1267 121.48 39.86L121.86 40.74C121.473 41.14 120.9 41.4867 120.14 41.78C119.38 42.0733 118.607 42.22 117.82 42.22ZM119.86 35.38C119.9 35.1 119.92 34.8133 119.92 34.52C119.907 33.6533 119.72 32.9733 119.36 32.48C119.013 31.9733 118.46 31.72 117.7 31.72C116.927 31.72 116.307 32 115.84 32.56C115.387 33.12 115.127 34.06 115.06 35.38H119.86ZM123.759 41.02L124.979 40.84V32.44L123.539 32.08V31L126.399 30.64L126.759 30.9L126.879 31.7L126.859 32.34C127.326 31.9133 127.959 31.5267 128.759 31.18C129.572 30.82 130.299 30.64 130.939 30.64C131.659 30.64 132.239 30.76 132.679 31C133.119 31.24 133.452 31.6133 133.679 32.12C134.106 31.76 134.699 31.4267 135.459 31.12C136.232 30.8 136.952 30.64 137.619 30.64C138.446 30.64 139.092 30.8 139.559 31.12C140.026 31.4267 140.352 31.9133 140.539 32.58C140.739 33.2333 140.839 34.1133 140.839 35.22V40.84L142.279 41.02V42H137.519V41.02L138.759 40.84V35.28C138.759 34.5067 138.699 33.8933 138.579 33.44C138.472 32.9733 138.259 32.6267 137.939 32.4C137.632 32.1733 137.186 32.06 136.599 32.06C136.159 32.06 135.692 32.16 135.199 32.36C134.706 32.5467 134.286 32.7733 133.939 33.04C134.059 33.56 134.119 34.3 134.119 35.26V40.84L135.539 41.02V42H130.699V41.02L132.019 40.84V35.24C132.019 34.44 131.966 33.82 131.859 33.38C131.766 32.94 131.579 32.6133 131.299 32.4C131.019 32.1733 130.592 32.06 130.019 32.06C129.539 32.06 129.026 32.18 128.479 32.42C127.946 32.66 127.479 32.94 127.079 33.26V40.84L128.419 41.02V42H123.759V41.02ZM143.681 36.42C143.681 35.22 143.928 34.18 144.421 33.3C144.915 32.42 145.561 31.7533 146.361 31.3C147.175 30.8333 148.041 30.6 148.961 30.6C150.641 30.6 151.901 31.1333 152.741 32.2C153.595 33.2667 154.021 34.6667 154.021 36.4C154.021 37.6133 153.775 38.66 153.281 39.54C152.788 40.42 152.135 41.0867 151.321 41.54C150.521 41.9933 149.661 42.22 148.741 42.22C147.061 42.22 145.795 41.6867 144.941 40.62C144.101 39.5533 143.681 38.1533 143.681 36.42ZM148.861 41.08C149.781 41.08 150.488 40.7 150.981 39.94C151.475 39.18 151.721 38.0533 151.721 36.56C151.721 35.08 151.495 33.9067 151.041 33.04C150.588 32.1733 149.861 31.74 148.861 31.74C147.941 31.74 147.228 32.12 146.721 32.88C146.228 33.64 145.981 34.7667 145.981 36.26C145.981 37.74 146.215 38.9133 146.681 39.78C147.148 40.6467 147.875 41.08 148.861 41.08ZM158.189 28.9C157.776 28.9 157.463 28.78 157.249 28.54C157.036 28.3 156.929 27.9933 156.929 27.62C156.929 27.1933 157.056 26.84 157.309 26.56C157.576 26.28 157.936 26.14 158.389 26.14C158.843 26.14 159.176 26.26 159.389 26.5C159.603 26.74 159.709 27.0467 159.709 27.42C159.709 27.8733 159.576 28.2333 159.309 28.5C159.056 28.7667 158.689 28.9 158.209 28.9H158.189ZM155.789 31.02L158.889 30.64H158.929L159.369 31V41.86C159.369 42.9667 159.209 43.8933 158.889 44.64C158.569 45.4 158.136 45.96 157.589 46.32C157.043 46.68 156.429 46.86 155.749 46.86C155.229 46.86 154.923 46.8333 154.829 46.78L154.729 45.84C154.836 45.8533 154.989 45.84 155.189 45.8C155.403 45.76 155.616 45.7 155.829 45.62C156.376 45.4333 156.756 44.98 156.969 44.26C157.196 43.5533 157.309 42.6 157.309 41.4V32.5L155.789 32.14V31.02ZM164.557 28.9C164.13 28.9 163.81 28.78 163.597 28.54C163.384 28.3 163.277 27.9933 163.277 27.62C163.277 27.1933 163.404 26.84 163.657 26.56C163.924 26.28 164.284 26.14 164.737 26.14C165.19 26.14 165.524 26.26 165.737 26.5C165.95 26.74 166.057 27.0467 166.057 27.42C166.057 27.8733 165.924 28.2333 165.657 28.5C165.404 28.7667 165.044 28.9 164.577 28.9H164.557ZM163.757 32.44L162.237 32.08V31.02L165.337 30.64H165.377L165.837 31V40.86L167.437 41.02V42H162.137V41.02L163.757 40.84V32.44Z" fill="#333333"/>
<path d="M66.128 29.264C65.264 29.264 64.488 29.192 63.8 29.048C63.112 28.904 62.344 28.712 61.496 28.472C60.936 28.312 60.56 28.224 60.368 28.208L60.584 23.768H62.528L63.056 26.864C63.264 27.088 63.632 27.288 64.16 27.464C64.704 27.64 65.32 27.728 66.008 27.728C67.08 27.728 67.88 27.496 68.408 27.032C68.952 26.552 69.224 25.888 69.224 25.04C69.224 24.48 69.064 24 68.744 23.6C68.424 23.184 67.984 22.816 67.424 22.496C66.864 22.16 66.096 21.776 65.12 21.344C63.792 20.736 62.688 20.016 61.808 19.184C60.944 18.336 60.512 17.192 60.512 15.752C60.512 14.856 60.744 14.048 61.208 13.328C61.672 12.592 62.36 12.016 63.272 11.6C64.2 11.168 65.328 10.952 66.656 10.952C67.44 10.952 68.128 11.008 68.72 11.12C69.328 11.232 69.984 11.384 70.688 11.576C71.104 11.688 71.416 11.76 71.624 11.792L71.48 15.992H69.56L69.056 13.04C68.912 12.896 68.624 12.76 68.192 12.632C67.76 12.488 67.28 12.416 66.752 12.416C65.792 12.416 65.064 12.64 64.568 13.088C64.088 13.52 63.848 14.104 63.848 14.84C63.848 15.432 64.024 15.944 64.376 16.376C64.744 16.808 65.184 17.176 65.696 17.48C66.208 17.768 67.016 18.184 68.12 18.728C69.016 19.16 69.784 19.584 70.424 20C71.064 20.416 71.616 20.96 72.08 21.632C72.544 22.288 72.776 23.064 72.776 23.96C72.776 24.84 72.552 25.68 72.104 26.48C71.672 27.28 70.952 27.944 69.944 28.472C68.952 29 67.68 29.264 66.128 29.264ZM80.5889 29.264C78.4769 29.264 76.9009 28.648 75.8609 27.416C74.8369 26.168 74.3249 24.472 74.3249 22.328C74.3249 20.888 74.5889 19.64 75.1169 18.584C75.6609 17.528 76.4209 16.72 77.3969 16.16C78.3729 15.6 79.5009 15.32 80.7809 15.32C82.3809 15.32 83.6129 15.744 84.4769 16.592C85.3409 17.424 85.7889 18.616 85.8209 20.168C85.8209 21.224 85.7569 22.008 85.6289 22.52H77.8289C77.8929 23.976 78.2369 25.112 78.8609 25.928C79.4849 26.728 80.3729 27.128 81.5249 27.128C82.1489 27.128 82.7889 27.024 83.4449 26.816C84.1169 26.608 84.6449 26.36 85.0289 26.072L85.6289 27.392C85.1969 27.856 84.4929 28.288 83.5169 28.688C82.5569 29.072 81.5809 29.264 80.5889 29.264ZM82.4609 21.08C82.4929 20.632 82.5089 20.288 82.5089 20.048C82.5089 17.92 81.7969 16.856 80.3729 16.856C79.5889 16.856 78.9809 17.168 78.5489 17.792C78.1169 18.416 77.8769 19.512 77.8289 21.08H82.4609ZM87.4723 25.256C87.4723 23.8 88.2003 22.704 89.6562 21.968C91.1283 21.232 93.0243 20.856 95.3443 20.84V20.288C95.3443 19.632 95.2723 19.12 95.1283 18.752C95.0003 18.384 94.7523 18.112 94.3843 17.936C94.0323 17.744 93.5123 17.648 92.8242 17.648C92.0403 17.648 91.3363 17.752 90.7123 17.96C90.0883 18.152 89.4403 18.408 88.7683 18.728L88.0243 17.192C88.2643 16.984 88.6643 16.736 89.2243 16.448C89.8003 16.16 90.4803 15.912 91.2643 15.704C92.0483 15.48 92.8563 15.368 93.6883 15.368C94.9203 15.368 95.8803 15.528 96.5683 15.848C97.2723 16.168 97.7763 16.68 98.0803 17.384C98.3843 18.088 98.5363 19.032 98.5363 20.216V27.56H99.8323V28.904C99.5123 28.984 99.0563 29.064 98.4643 29.144C97.8723 29.224 97.3523 29.264 96.9043 29.264C96.3603 29.264 95.9923 29.184 95.8003 29.024C95.6243 28.864 95.5363 28.536 95.5363 28.04V27.392C95.1043 27.872 94.5443 28.304 93.8563 28.688C93.1683 29.072 92.3923 29.264 91.5283 29.264C90.7923 29.264 90.1123 29.112 89.4883 28.808C88.8803 28.488 88.3923 28.032 88.0243 27.44C87.6563 26.832 87.4723 26.104 87.4723 25.256ZM93.0643 27.272C93.4003 27.272 93.7843 27.176 94.2163 26.984C94.6483 26.776 95.0243 26.528 95.3443 26.24V22.304C93.9043 22.304 92.8243 22.552 92.1043 23.048C91.4003 23.528 91.0483 24.152 91.0483 24.92C91.0483 25.688 91.2243 26.272 91.5763 26.672C91.9443 27.072 92.4403 27.272 93.0643 27.272ZM101.33 27.584L102.914 27.392V17.936L101.378 17.504V15.848L105.098 15.344H105.17L105.77 15.824V16.352L105.698 18.296H105.77C105.882 17.976 106.146 17.584 106.562 17.12C106.978 16.64 107.498 16.224 108.122 15.872C108.762 15.504 109.45 15.32 110.186 15.32C110.538 15.32 110.842 15.368 111.098 15.464V19.064C110.618 18.728 110.034 18.56 109.346 18.56C108.178 18.56 107.162 18.872 106.298 19.496V27.368L109.082 27.584V29H101.33V27.584ZM112.315 22.4C112.315 21.024 112.587 19.8 113.131 18.728C113.691 17.656 114.483 16.824 115.507 16.232C116.547 15.624 117.755 15.32 119.131 15.32C119.771 15.32 120.323 15.368 120.787 15.464C121.251 15.56 121.771 15.688 122.347 15.848L123.043 16.04L122.899 20.144H120.811L120.211 17.504C120.115 17.088 119.643 16.88 118.795 16.88C117.899 16.88 117.195 17.272 116.683 18.056C116.187 18.84 115.931 20.064 115.915 21.728C115.915 23.488 116.219 24.84 116.827 25.784C117.435 26.712 118.243 27.176 119.251 27.176C120.467 27.176 121.587 26.848 122.611 26.192L123.163 27.44C122.747 27.888 122.107 28.304 121.243 28.688C120.395 29.072 119.475 29.264 118.483 29.264C116.435 29.264 114.891 28.632 113.851 27.368C112.827 26.104 112.315 24.448 112.315 22.4ZM126.2 11.456L124.376 11.144V9.848L128.84 9.32H128.912L129.536 9.776L129.56 15.128L129.392 17.216C129.888 16.768 130.56 16.352 131.408 15.968C132.272 15.584 133.176 15.392 134.12 15.392C135.128 15.392 135.912 15.584 136.472 15.968C137.032 16.336 137.424 16.904 137.648 17.672C137.872 18.44 137.984 19.464 137.984 20.744V27.344L139.52 27.56V29H133.208V27.56L134.6 27.344V20.744C134.6 19.912 134.544 19.264 134.432 18.8C134.32 18.336 134.112 17.992 133.808 17.768C133.52 17.544 133.088 17.432 132.512 17.432C132.016 17.432 131.504 17.552 130.976 17.792C130.464 18.016 130.008 18.288 129.608 18.608V27.344L131.072 27.56V29H124.856V27.56L126.2 27.368V11.456Z" fill="#242424"/>
<defs>
<clipPath id="clip0_65_465">
<rect width="54" height="54" fill="white"/>
</clipPath>
</defs>
</svg>
